<?xml version="1.0" encoding="UTF-8" standalone="no"?>
<!-- Created with Inkscape (http://www.inkscape.org/) -->

<svg
   width="500mm"
   height="500mm"
   viewBox="0 0 499.99999 499.99999"
   version="1.1"
   id="svg268"
   xmlns="http://www.w3.org/2000/svg"
   xmlns:svg="http://www.w3.org/2000/svg">
  <defs
     id="defs265">
    <rect
       x="61.83371"
       y="71.346588"
       width="1793.1776"
       height="1783.6648"
       id="rect3094" />
  </defs>
  <g
     id="layer1"
     transform="translate(-147.24152,-60.40678)">
    <g
       aria-label="A"
       transform="matrix(3.2113119,0,0,3.2113119,528.67776,-159.88145)"
       id="text3092"
       style="font-size:192px;font-family:AppleGothic;-inkscape-font-specification:'AppleGothic, Normal';white-space:pre;shape-inside:url(#rect3094);display:inline;fill:#000300">
      <path
         d="m -60.153265,71.785834 h 14.784 l 56.064,150.527996 H -6.9692648 l -18.0480002,-51.456 c -56.84351,-5.28974 -57.70967,1.35004 -76.031995,51.456 h -16.704 z m 30.912,85.823996 -23.232,-67.776 c -20.34482,57.7675 -42.022457,67.776 23.232,67.776 z"
         id="path4780" />
    </g>
    <g
       aria-label="P"
       id="g9898"
       style="font-size:370.218px;font-family:'Wingdings 2';-inkscape-font-specification:'Wingdings 2, Normal';fill:#ffffff;fill-opacity:1;stroke:#ffffff;stroke-width:3.0639;stroke-dasharray:none;stroke-opacity:0.00373134"
       transform="matrix(1.52614,0,0,1.3186471,-164.88551,-23.431314)">
      <path
         d="m 524.69507,149.5622 5.42312,9.40007 q -52.96576,37.41949 -98.15838,94.72374 -45.19263,57.30425 -65.25816,112.25848 l -7.9539,5.24234 q -10.30392,6.68851 -17.71551,13.37702 -1.26539,-6.50774 -7.05005,-20.96938 l -4.15772,-10.30392 q -13.55779,-33.44254 -22.95785,-46.63879 -9.2193,-13.37701 -20.06553,-14.46164 14.64241,-13.37701 25.48864,-13.37701 15.00395,0 32.90023,40.31182 l 6.50774,14.46164 q 31.99638,-57.30425 77.18901,-105.56997 45.37339,-48.26573 95.80836,-78.4544 z"
         id="path9896"
         style="fill:#ffffff;fill-opacity:1;stroke:#ffffff;stroke-width:3.0639;stroke-dasharray:none;stroke-opacity:0.00373134" />
    </g>
    <g
       aria-label="P"
       id="text7380"
       style="font-size:370.218px;font-family:'Wingdings 2';-inkscape-font-specification:'Wingdings 2, Normal';fill:#009500;fill-opacity:1;stroke:#ffff1e;stroke-width:3.0639;stroke-dasharray:none;stroke-opacity:0.00373134"
       transform="matrix(1.52614,0,0,1.3186471,-168.74435,-23.496503)">
      <path
         d="m 524.69507,149.5622 5.42312,9.40007 q -52.96576,37.41949 -98.15838,94.72374 -45.19263,57.30425 -65.25816,112.25848 l -7.9539,5.24234 q -10.30392,6.68851 -17.71551,13.37702 -1.26539,-6.50774 -7.05005,-20.96938 l -4.15772,-10.30392 q -13.55779,-33.44254 -22.95785,-46.63879 -9.2193,-13.37701 -20.06553,-14.46164 14.64241,-13.37701 25.48864,-13.37701 15.00395,0 32.90023,40.31182 l 6.50774,14.46164 q 31.99638,-57.30425 77.18901,-105.56997 45.37339,-48.26573 95.80836,-78.4544 z"
         id="path7382"
         style="fill:#009500;fill-opacity:1;stroke:#ffff1e;stroke-width:3.0639;stroke-dasharray:none;stroke-opacity:0.00373134" />
    </g>
    <g
       aria-label="11y"
       id="text7439"
       style="font-size:50.8px;font-family:'Wingdings 2';-inkscape-font-specification:'Wingdings 2, Normal';fill:#000800;stroke:#ffffff;stroke-width:4.04699;stroke-opacity:0.00373134"
       transform="matrix(2.29174,0,0,2.29174,-351.26135,-560.44321)">
      <g
         aria-label="elevenY"
         id="text7608"
         style="font-size:22.1666px;font-family:'Arial Unicode MS';-inkscape-font-specification:'Arial Unicode MS, Normal';fill:#3208f3;fill-opacity:1;stroke-width:1.7659"
         transform="matrix(1.349668,0,0,2.203552,-110.08548,-555.9425)">
        <g
           id="g9133"
           transform="matrix(0.86450566,0,0,0.51538528,43.031498,224.92752)">
          <path
             d="m 281.05676,467.86909 h -8.60471 q 0.11906,1.90494 1.08235,2.91153 0.97412,1.00658 2.42447,1.00658 1.11483,0 1.87247,-0.58447 0.75765,-0.59529 1.15812,-1.78588 l 2.00236,0.24894 q -0.48706,1.79671 -1.78589,2.76 -1.29882,0.9633 -3.24706,0.9633 -2.58682,0 -4.048,-1.58024 -1.45035,-1.59106 -1.45035,-4.34024 0,-2.7167 1.40706,-4.40517 1.41788,-1.68848 3.98306,-1.68848 1.25553,0 2.41365,0.552 1.16894,0.55201 1.9807,1.8833 0.81177,1.32047 0.81177,4.05883 z m -2.00236,-1.60189 q -0.11905,-1.75341 -1.09317,-2.52188 -0.9633,-0.7793 -2.11059,-0.7793 -1.37459,0 -2.26212,0.92 -0.88753,0.92001 -1.02824,2.38118 z"
             style="fill:#3208f3;fill-opacity:1;stroke-width:1.76591"
             id="path7660" />
          <path
             d="m 285.3537,473.1185 h -1.94823 v -15.8673 h 1.94823 z"
             style="fill:#3208f3;fill-opacity:1;stroke-width:1.76591"
             id="path7662" />
          <path
             d="m 298.30947,467.86909 h -8.60471 q 0.11906,1.90494 1.08236,2.91153 0.97411,1.00658 2.42447,1.00658 1.11482,0 1.87247,-0.58447 0.75765,-0.59529 1.15812,-1.78588 l 2.00235,0.24894 q -0.48706,1.79671 -1.78588,2.76 -1.29883,0.9633 -3.24706,0.9633 -2.58683,0 -4.048,-1.58024 -1.45036,-1.59106 -1.45036,-4.34024 0,-2.7167 1.40706,-4.40517 1.41788,-1.68848 3.98306,-1.68848 1.25553,0 2.41365,0.552 1.16894,0.55201 1.98071,1.8833 0.81176,1.32047 0.81176,4.05883 z m -2.00235,-1.60189 q -0.11906,-1.75341 -1.09318,-2.52188 -0.96329,-0.7793 -2.11059,-0.7793 -1.37459,0 -2.26212,0.92 -0.88753,0.92001 -1.02823,2.38118 z"
             style="fill:#3208f3;fill-opacity:1;stroke-width:1.76591"
             id="path7664" />
          <path
             d="m 309.98807,461.63473 -4.34024,11.48377 h -1.81836 l -4.36188,-11.48377 h 2.05647 l 2.37036,6.64565 q 0.67105,1.88329 0.80094,2.55435 h 0.0433 q 0.17318,-0.6927 0.5953,-1.86164 l 2.66258,-7.33836 z"
             style="fill:#3208f3;fill-opacity:1;stroke-width:1.76591"
             id="path7666" />
          <path
             d="m 321.72078,467.86909 h -8.60471 q 0.11906,1.90494 1.08235,2.91153 0.97412,1.00658 2.42447,1.00658 1.11483,0 1.87248,-0.58447 0.75764,-0.59529 1.15811,-1.78588 l 2.00236,0.24894 q -0.48706,1.79671 -1.78589,2.76 -1.29882,0.9633 -3.24706,0.9633 -2.58682,0 -4.048,-1.58024 -1.45035,-1.59106 -1.45035,-4.34024 0,-2.7167 1.40706,-4.40517 1.41788,-1.68848 3.98306,-1.68848 1.25553,0 2.41365,0.552 1.16894,0.55201 1.9807,1.8833 0.81177,1.32047 0.81177,4.05883 z m -2.00236,-1.60189 q -0.11905,-1.75341 -1.09317,-2.52188 -0.9633,-0.7793 -2.11059,-0.7793 -1.37459,0 -2.26212,0.92 -0.88753,0.92001 -1.02824,2.38118 z"
             style="fill:#3208f3;fill-opacity:1;stroke-width:1.76591"
             id="path7668" />
          <path
             d="m 333.45349,473.1185 h -1.95906 v -6.98118 q 0,-1.76424 -0.63859,-2.42447 -0.62776,-0.66024 -1.75341,-0.66024 -0.86588,0 -1.64518,0.42212 -0.76847,0.42212 -1.09317,1.19059 -0.32471,0.76847 -0.32471,2.17553 v 6.27765 h -1.94824 v -11.48377 h 1.75342 v 1.62353 h 0.0433 q 0.61694,-0.94165 1.5153,-1.40706 0.90917,-0.47624 2.09976,-0.47624 0.90918,0 1.79671,0.32471 0.88753,0.32471 1.38541,0.97412 0.50871,0.64941 0.63859,1.38541 0.12988,0.736 0.12988,1.99153 z"
             style="fill:#3208f3;fill-opacity:1;stroke-width:1.76591"
             id="path7670" />
        </g>
        <g
           aria-label="Y"
           transform="scale(1.2777567,0.7826216)"
           id="text9189"
           style="font-size:20.5157px;fill:#009500;fill-opacity:1;stroke-width:1.63438">
          <path
             d="m 270.33831,585.19991 q 0,0.16413 -0.34877,0.16413 -1.12836,0.0205 -1.39507,0.3898 -0.24618,0.22567 -1.76435,3.48766 -0.67701,1.45662 -1.27197,2.56447 -0.41031,0.75908 -0.47186,1.0463 -0.0616,0.2667 -0.0616,1.18991 v 3.87747 q 0,0.67701 0.16413,0.80011 0.18464,0.12309 1.23094,0.18464 0.55392,0.041 0.55392,0.20516 0,0.16412 -0.28722,0.16412 h -0.24618 l -2.8722,-0.0616 q -1.21043,0 -1.99002,0.041 -0.1231,0.0205 -0.28722,0.0205 -0.28722,0 -0.28722,-0.18464 0,-0.18464 0.47186,-0.20516 1.12836,-0.041 1.33352,-0.20515 0.20515,-0.16413 0.20515,-0.98476 v -4.32881 q -0.20515,-0.45135 -1.18991,-2.40034 l -2.05157,-4.06211 q -0.30773,-0.59495 -0.73856,-1.33352 -0.22567,-0.20515 -0.98475,-0.20515 -0.73857,0 -0.73857,-0.22568 0,-0.16412 0.32825,-0.16412 0.43083,0 1.72332,0.041 0.73857,0.0205 1.06682,0.0205 l 2.37982,-0.0205 q 0.14361,-0.0205 0.32825,-0.0205 0.36928,0 0.36928,0.20516 0,0.18464 -0.69753,0.18464 -1.27198,0 -1.27198,0.45135 0,0.34877 1.29249,2.81065 l 1.86693,3.54922 q 0.51289,-0.92321 1.1694,-2.27725 l 1.21042,-2.44137 q 0.67702,-1.313 0.67702,-1.72331 0,-0.26671 -0.34877,-0.30774 -0.71805,-0.10258 -0.96423,-0.0821 -0.45135,0.0205 -0.45135,-0.20516 0,-0.16413 0.3898,-0.16413 l 1.18991,0.0205 0.67702,-0.0205 q 2.0926,-0.0615 2.0926,0.20516 z"
             style="font-family:'Bodoni 72 Oldstyle';-inkscape-font-specification:'Bodoni 72 Oldstyle, Normal';fill:#009500;fill-opacity:1"
             id="path9241" />
        </g>
      </g>
    </g>
  </g>
</svg>
