<?xml version="1.0" encoding="UTF-8"?><svg height="678" version="1.1" width="1148" xmlns="http://www.w3.org/2000/svg" style="overflow: hidden; position: relative;"><desc>Created with Raphaël 2.0.1</desc><defs></defs><rect x="0" y="0" width="1148" height="678" r="0" rx="0" ry="0" fill="#905e2e" stroke="none" style=""></rect><ellipse cx="313" cy="176" rx="177" ry="249.57" fill="#be8235" stroke="#3f01d3" transform="matrix(1,0,0,1,0,0)" style="opacity: 0.53;" stroke-width="23" opacity="0.53"></ellipse><ellipse cx="693" cy="562" rx="158" ry="222.78" fill="#be8235" stroke="#3f01d3" transform="matrix(0.9898,0.1423,-0.1423,0.9898,87.0347,-92.9038)" style="opacity: 0.53;" stroke-width="23" opacity="0.53"></ellipse><ellipse cx="435" cy="189" rx="120" ry="169.2" fill="#be8235" stroke="#3f01d3" transform="matrix(0.9595,0.2817,-0.2817,0.9595,70.868,-114.8978)" style="opacity: 0.53;" stroke-width="23" opacity="0.53"></ellipse><ellipse cx="317" cy="506" rx="51" ry="71.91" fill="#be8235" stroke="#3f01d3" transform="matrix(0.9096,0.4154,-0.4154,0.9096,238.8467,-85.9603)" style="opacity: 0.53;" stroke-width="23" opacity="0.53"></ellipse><ellipse cx="964" cy="270" rx="94" ry="132.54" fill="#be8235" stroke="#3f01d3" transform="matrix(0.8413,0.5406,-0.5406,0.8413,299.0046,-478.3162)" style="opacity: 0.53;" stroke-width="23" opacity="0.53"></ellipse><ellipse cx="189" cy="472" rx="125" ry="176.25" fill="#be8235" stroke="#3f01d3" transform="matrix(0.7557,0.6549,-0.6549,0.7557,355.2576,-8.4825)" style="opacity: 0.53;" stroke-width="23" opacity="0.53"></ellipse><ellipse cx="838" cy="367" rx="176" ry="248.16" fill="#be8235" stroke="#3f01d3" transform="matrix(0.6549,0.7557,-0.7557,0.6549,566.5868,-506.652)" style="opacity: 0.53;" stroke-width="23" opacity="0.53"></ellipse><ellipse cx="178" cy="490" rx="175" ry="246.75" fill="#be8235" stroke="#3f01d3" transform="matrix(0.5406,0.8413,-0.8413,0.5406,493.9802,75.3429)" style="opacity: 0.53;" stroke-width="23" opacity="0.53"></ellipse><ellipse cx="710" cy="238" rx="145" ry="204.45" fill="#be8235" stroke="#3f01d3" transform="matrix(0.4154,0.9096,-0.9096,0.4154,631.5478,-506.7075)" style="opacity: 0.53;" stroke-width="23" opacity="0.53"></ellipse><ellipse cx="310" cy="535" rx="79" ry="111.39" fill="#be8235" stroke="#3f01d3" transform="matrix(0.2817,0.9595,-0.9595,0.2817,735.9916,86.8303)" style="opacity: 0.53;" stroke-width="23" opacity="0.53"></ellipse><ellipse cx="869" cy="139" rx="188" ry="265.08" fill="#be8235" stroke="#3f01d3" transform="matrix(0.1423,0.9898,-0.9898,0.1423,882.9136,-740.9366)" style="opacity: 0.53;" stroke-width="23" opacity="0.53"></ellipse><ellipse cx="509" cy="135" rx="58" ry="81.78" fill="#be8235" stroke="#3f01d3" transform="matrix(0,1,-1,0,644,-374)" style="opacity: 0.53;" stroke-width="23" opacity="0.53"></ellipse><ellipse cx="800" cy="316" rx="180" ry="253.79999999999998" fill="#be8235" stroke="#3f01d3" transform="matrix(-0.1423,0.9898,-0.9898,-0.1423,1226.6354,-430.8857)" style="opacity: 0.53;" stroke-width="23" opacity="0.53"></ellipse><ellipse cx="158" cy="105" rx="68" ry="95.88" fill="#be8235" stroke="#3f01d3" transform="matrix(-0.2817,0.9595,-0.9595,-0.2817,303.2605,-17.018)" style="opacity: 0.53;" stroke-width="23" opacity="0.53"></ellipse><ellipse cx="913" cy="247" rx="58" ry="81.78" fill="#be8235" stroke="#3f01d3" transform="matrix(-0.4154,0.9096,-0.9096,-0.4154,1516.953,-480.8865)" style="opacity: 0.53;" stroke-width="23" opacity="0.53"></ellipse><ellipse cx="605" cy="355" rx="108" ry="152.28" fill="#be8235" stroke="#3f01d3" transform="matrix(-0.5406,0.8413,-0.8413,-0.5406,1230.7327,37.9691)" style="opacity: 0.53;" stroke-width="23" opacity="0.53"></ellipse><ellipse cx="141" cy="281" rx="175" ry="246.75" fill="#be8235" stroke="#3f01d3" transform="matrix(-0.6549,0.7557,-0.7557,-0.6549,445.701,358.4552)" style="opacity: 0.53;" stroke-width="23" opacity="0.53"></ellipse><ellipse cx="264" cy="105" rx="81" ry="114.21" fill="#be8235" stroke="#3f01d3" transform="matrix(-0.7557,0.6549,-0.6549,-0.7557,532.2783,11.4705)" style="opacity: 0.53;" stroke-width="23" opacity="0.53"></ellipse><ellipse cx="633" cy="319" rx="112" ry="157.92" fill="#be8235" stroke="#3f01d3" transform="matrix(-0.8413,0.5406,-0.5406,-0.8413,1337.9779,245.1342)" style="opacity: 0.53;" stroke-width="23" opacity="0.53"></ellipse><ellipse cx="932" cy="270" rx="56" ry="78.96" fill="#be8235" stroke="#3f01d3" transform="matrix(-0.9096,0.4154,-0.4154,-0.9096,1891.9391,128.4338)" style="opacity: 0.53;" stroke-width="23" opacity="0.53"></ellipse><ellipse cx="517" cy="163" rx="114" ry="160.73999999999998" fill="#be8235" stroke="#3f01d3" transform="matrix(-0.9595,0.2817,-0.2817,-0.9595,1058.9803,173.7416)" style="opacity: 0.53;" stroke-width="23" opacity="0.53"></ellipse><ellipse cx="523" cy="289" rx="142" ry="200.22" fill="#be8235" stroke="#3f01d3" transform="matrix(-0.9898,0.1423,-0.1423,-0.9898,1081.8056,500.6277)" style="opacity: 0.53;" stroke-width="23" opacity="0.53"></ellipse><ellipse cx="546" cy="491" rx="182" ry="256.62" fill="#be8235" stroke="#3f01d3" transform="matrix(-1,0,0,-1,1092,982)" style="opacity: 0.53;" stroke-width="23" opacity="0.53"></ellipse><ellipse cx="128" cy="345" rx="175" ry="246.75" fill="#be8235" stroke="#3f01d3" transform="matrix(-0.9898,-0.1423,0.1423,-0.9898,205.5985,704.7047)" style="opacity: 0.53;" stroke-width="23" opacity="0.53"></ellipse><ellipse cx="786" cy="523" rx="118" ry="166.38" fill="#be8235" stroke="#3f01d3" transform="matrix(-0.9595,-0.2817,0.2817,-0.9595,1392.8154,1246.2566)" style="opacity: 0.53;" stroke-width="23" opacity="0.53"></ellipse><ellipse cx="372" cy="297" rx="78" ry="109.97999999999999" fill="#be8235" stroke="#3f01d3" transform="matrix(-0.9096,-0.4154,0.4154,-0.9096,587.0048,721.6951)" style="opacity: 0.53;" stroke-width="23" opacity="0.53"></ellipse><ellipse cx="515" cy="305" rx="152" ry="214.32" fill="#be8235" stroke="#3f01d3" transform="matrix(-0.8413,-0.5406,0.5406,-0.8413,783.3501,840.0123)" style="opacity: 0.53;" stroke-width="23" opacity="0.53"></ellipse><ellipse cx="668" cy="114" rx="57" ry="80.36999999999999" fill="#be8235" stroke="#3f01d3" transform="matrix(-0.7557,-0.6549,0.6549,-0.7557,1098.1866,637.6024)" style="opacity: 0.53;" stroke-width="23" opacity="0.53"></ellipse><ellipse cx="217" cy="164" rx="128" ry="180.48" fill="#be8235" stroke="#3f01d3" transform="matrix(-0.6549,-0.7557,0.7557,-0.6549,235.1618,435.3948)" style="opacity: 0.53;" stroke-width="23" opacity="0.53"></ellipse><ellipse cx="362" cy="341" rx="121" ry="170.60999999999999" fill="#be8235" stroke="#3f01d3" transform="matrix(-0.5406,-0.8413,0.8413,-0.5406,270.8445,829.8923)" style="opacity: 0.53;" stroke-width="23" opacity="0.53"></ellipse><ellipse cx="781" cy="119" rx="87" ry="122.66999999999999" fill="#be8235" stroke="#3f01d3" transform="matrix(-0.4154,-0.9096,0.9096,-0.4154,997.1929,878.857)" style="opacity: 0.53;" stroke-width="23" opacity="0.53"></ellipse><ellipse cx="777" cy="520" rx="55" ry="77.55" fill="#be8235" stroke="#3f01d3" transform="matrix(-0.2817,-0.9595,0.9595,-0.2817,496.9699,1412.027)" style="opacity: 0.53;" stroke-width="23" opacity="0.53"></ellipse><ellipse cx="724" cy="198" rx="56" ry="78.96" fill="#be8235" stroke="#3f01d3" transform="matrix(-0.1423,-0.9898,0.9898,-0.1423,631.0513,942.8091)" style="opacity: 0.53;" stroke-width="23" opacity="0.53"></ellipse><ellipse cx="213" cy="471" rx="146" ry="205.85999999999999" fill="#be8235" stroke="#3f01d3" transform="matrix(0,-1,1,0,-258,684)" style="opacity: 0.53;" stroke-width="23" opacity="0.53"></ellipse><ellipse cx="733" cy="392" rx="70" ry="98.69999999999999" fill="#be8235" stroke="#3f01d3" transform="matrix(0.1423,-0.9898,0.9898,0.1423,240.6732,1061.7517)" style="opacity: 0.53;" stroke-width="23" opacity="0.53"></ellipse><ellipse cx="760" cy="170" rx="81" ry="114.21" fill="#be8235" stroke="#3f01d3" transform="matrix(0.2817,-0.9595,0.9595,0.2817,382.7695,851.3201)" style="opacity: 0.53;" stroke-width="23" opacity="0.53"></ellipse><ellipse cx="664" cy="543" rx="71" ry="100.11" fill="#be8235" stroke="#3f01d3" transform="matrix(0.4154,-0.9096,0.9096,0.4154,-105.7657,921.4253)" style="opacity: 0.53;" stroke-width="23" opacity="0.53"></ellipse><ellipse cx="565" cy="484" rx="93" ry="131.13" fill="#be8235" stroke="#3f01d3" transform="matrix(0.5406,-0.8413,0.8413,0.5406,-147.6288,697.6381)" style="opacity: 0.53;" stroke-width="23" opacity="0.53"></ellipse><ellipse cx="548" cy="353" rx="139" ry="195.98999999999998" fill="#be8235" stroke="#3f01d3" transform="matrix(0.6549,-0.7557,0.7557,0.6549,-77.6433,535.9849)" style="opacity: 0.53;" stroke-width="23" opacity="0.53"></ellipse><ellipse cx="905" cy="249" rx="130" ry="183.29999999999998" fill="#be8235" stroke="#3f01d3" transform="matrix(0.7557,-0.6549,0.6549,0.7557,57.9863,653.4673)" style="opacity: 0.53;" stroke-width="23" opacity="0.53"></ellipse><ellipse cx="694" cy="562" rx="97" ry="136.76999999999998" fill="#be8235" stroke="#3f01d3" transform="matrix(0.8413,-0.5406,0.5406,0.8413,-193.6701,464.4202)" style="opacity: 0.53;" stroke-width="23" opacity="0.53"></ellipse><ellipse cx="151" cy="117" rx="71" ry="100.11" fill="#be8235" stroke="#3f01d3" transform="matrix(0.9096,-0.4154,0.4154,0.9096,-34.958,73.3007)" style="opacity: 0.53;" stroke-width="23" opacity="0.53"></ellipse><ellipse cx="926" cy="214" rx="172" ry="242.51999999999998" fill="#be8235" stroke="#3f01d3" transform="matrix(0.9595,-0.2817,0.2817,0.9595,-22.7813,269.5529)" style="opacity: 0.53;" stroke-width="23" opacity="0.53"></ellipse><ellipse cx="711" cy="497" rx="176" ry="248.16" fill="#be8235" stroke="#3f01d3" transform="matrix(0.9898,-0.1423,0.1423,0.9898,-63.4935,106.2446)" style="opacity: 0.53;" stroke-width="23" opacity="0.53"></ellipse></svg>
